# xmcd
#
# Track frame offsets: 
#        150
#        10701
#        22842
#        36614
#        55702
#        68902
#        80459
#        93076
#        104111
#        120394
#        138209
#        153012
#        166843
#        178713
#        190402
#        205294
#        217352
#        230315
#        247652
#        257624
#        268071
#
# Disc length: 3731 seconds
#
# Revision: 3
# Processed by: cddbd v1.5.2PL0 Copyright (c) Steve Scherf et al.
# Submitted via: ExactAudioCopyFreeDBPlugin 1.0
#
DISCID=170e9115
DTITLE=Various Artist - Country Stars on CD [CD 1)
DYEAR=2004
DGENRE=Country
TTITLE0=Willie Nelson - Blue Eyes Cryin´ In The Rain
TTITLE1=Moe Bandy - It´s A Cheatin´ Situation
TTITLE2=Porter Wagoner and Pamela Rose - Don´t Let Me Cross Over
TTITLE3=David Frizzell - I´m Gonna Hire A Wino To Decorate Our Home
TTITLE4=Tammy Wynette - D-I-V-O-R-C-E
TTITLE5=Ray Price - Crazy Arms
TTITLE6=Hank Thompson - Wild Side Of Life
TTITLE7=Vern Gosdin - Set Em Up Joe
TTITLE8=Exile - She´s Too Good To Be True
TTITLE9=Red Sovine - Giddyup Go
TTITLE10=Johnny Cash - Waylon Jennings - There Ain´t No Good Chain Gan
TTITLE10=g
TTITLE11=Lefty Frizzell - Saginaw, Michigan
TTITLE12=Johnny Bush - Undo The Right
TTITLE13=Patsy Cline - Walkin´ After Midnight
TTITLE14=Mike Lunsford - I´ll Allways Remember
TTITLE15=Skeeter Davis - End Of The World
TTITLE16=Merle Haggard - Fightin´ Side Of Me
TTITLE17=Sandy Posey - Didn´t Leave Nobody But The Baby
TTITLE18=Johnny Cash - Ballade Of A Teenage Queen
TTITLE19=Johnny Paycheck - Don´t Monkey With Another Monkey´s Monkey
TTITLE20=Carl Belew - Am I That Easy To Forget
EXTD=
EXTT0=
EXTT1=
EXTT2=
EXTT3=
EXTT4=
EXTT5=
EXTT6=
EXTT7=
EXTT8=
EXTT9=
EXTT10=
EXTT11=
EXTT12=
EXTT13=
EXTT14=
EXTT15=
EXTT16=
EXTT17=
EXTT18=
EXTT19=
EXTT20=
PLAYORDER=
